<svg xmlns="http://www.w3.org/2000/svg" xmlns:xlink="http://www.w3.org/1999/xlink" width="500" zoomAndPan="magnify" viewBox="0 0 375 374.999991" height="500" preserveAspectRatio="xMidYMid meet" version="1.0"><defs><g/><clipPath id="91de5ac985"><path d="M 150 3 L 245 3 L 245 221 L 150 221 Z M 150 3 " clip-rule="nonzero"/></clipPath><clipPath id="f7753a4572"><path d="M 216.707031 2.25 L 292.789062 30.039062 L 215.34375 242.089844 L 139.257812 214.300781 Z M 216.707031 2.25 " clip-rule="nonzero"/></clipPath><clipPath id="035f6ba9d8"><path d="M 216.707031 2.25 L 292.789062 30.039062 L 215.34375 242.089844 L 139.257812 214.300781 Z M 216.707031 2.25 " clip-rule="nonzero"/></clipPath><clipPath id="21d23a7c02"><path d="M 203 27 L 290 27 L 290 241 L 203 241 Z M 203 27 " clip-rule="nonzero"/></clipPath><clipPath id="8aaf0e72aa"><path d="M 216.707031 2.25 L 292.789062 30.039062 L 215.34375 242.089844 L 139.257812 214.300781 Z M 216.707031 2.25 " clip-rule="nonzero"/></clipPath><clipPath id="49c0587cb8"><path d="M 216.707031 2.25 L 292.789062 30.039062 L 215.34375 242.089844 L 139.257812 214.300781 Z M 216.707031 2.25 " clip-rule="nonzero"/></clipPath><clipPath id="08e6186117"><path d="M 90 70 L 361 70 L 361 353 L 90 353 Z M 90 70 " clip-rule="nonzero"/></clipPath><clipPath id="512ceab60f"><path d="M 195.40625 392.667969 L 51.199219 263.648438 L 280.734375 7.089844 L 424.945312 136.113281 Z M 195.40625 392.667969 " clip-rule="nonzero"/></clipPath><clipPath id="498d93565a"><path d="M 195.40625 392.667969 L 51.199219 263.648438 L 280.734375 7.089844 L 424.945312 136.113281 Z M 195.40625 392.667969 " clip-rule="nonzero"/></clipPath><clipPath id="061bd7a32e"><path d="M 56 134 L 294 134 L 294 371 L 56 371 Z M 56 134 " clip-rule="nonzero"/></clipPath><clipPath id="1baf616a4b"><path d="M 279.871094 122.191406 L 305.0625 357.453125 L 69.796875 382.644531 L 44.605469 147.382812 Z M 279.871094 122.191406 " clip-rule="nonzero"/></clipPath><clipPath id="44508bc9ba"><path d="M 292.464844 239.824219 C 285.511719 174.855469 227.203125 127.832031 162.238281 134.785156 C 97.273438 141.742188 50.246094 200.046875 57.203125 265.015625 C 64.160156 329.980469 122.464844 377.007812 187.429688 370.050781 C 252.398438 363.09375 299.421875 304.789062 292.464844 239.824219 Z M 292.464844 239.824219 " clip-rule="nonzero"/></clipPath><clipPath id="c5d7741692"><path d="M 56 134 L 294 134 L 294 371 L 56 371 Z M 56 134 " clip-rule="nonzero"/></clipPath><clipPath id="5aed0ef5fa"><path d="M 279.871094 122.191406 L 305.023438 357.097656 L 70.117188 382.25 L 44.964844 147.34375 Z M 279.871094 122.191406 " clip-rule="nonzero"/></clipPath><clipPath id="e36355cd8f"><path d="M 279.871094 122.191406 L 305.0625 357.449219 L 69.804688 382.636719 L 44.613281 147.382812 Z M 279.871094 122.191406 " clip-rule="nonzero"/></clipPath><clipPath id="1cff3fbe82"><path d="M 292.464844 239.820312 C 285.507812 174.855469 227.207031 127.828125 162.242188 134.785156 C 97.277344 141.742188 50.253906 200.046875 57.210938 265.011719 C 64.164062 329.972656 122.46875 377 187.433594 370.042969 C 252.398438 363.085938 299.421875 304.785156 292.464844 239.820312 Z M 292.464844 239.820312 " clip-rule="nonzero"/></clipPath></defs><g clip-path="url(#91de5ac985)"><g clip-path="url(#f7753a4572)"><g clip-path="url(#035f6ba9d8)"><path fill="#ff3131" d="M 200.378906 47.46875 C 204.070312 38.984375 207.898438 30.554688 211.414062 21.996094 C 213.890625 15.96875 215.9375 9.757812 218.175781 3.632812 C 218.824219 3.847656 219.476562 4.066406 220.125 4.285156 C 215.273438 20.132812 210.414062 35.984375 205.558594 51.832031 C 206.226562 52.085938 206.894531 52.332031 207.558594 52.585938 C 214.101562 37.273438 220.636719 21.960938 227.171875 6.652344 C 227.535156 6.761719 227.898438 6.871094 228.265625 6.984375 C 223.15625 23.410156 218.046875 39.835938 212.9375 56.261719 C 213.632812 56.527344 214.332031 56.792969 215.023438 57.058594 C 222.003906 41.324219 228.988281 25.589844 235.964844 9.855469 C 236.328125 9.984375 236.691406 10.117188 237.050781 10.25 C 231.882812 26 226.722656 41.753906 221.558594 57.507812 C 222.210938 57.777344 222.863281 58.042969 223.519531 58.308594 C 230.328125 43.21875 237.136719 28.125 243.945312 13.035156 C 244.199219 13.09375 244.449219 13.148438 244.703125 13.203125 C 244.550781 14.15625 244.441406 15.121094 244.234375 16.0625 C 244.019531 17.039062 243.753906 18.011719 243.433594 18.957031 C 237.523438 36.117188 231.667969 53.292969 225.660156 70.417969 C 223.324219 77.078125 219.367188 82.1875 211.863281 83.707031 C 210.703125 83.941406 209.359375 85.492188 208.929688 86.726562 C 199.667969 113.007812 190.460938 139.304688 181.386719 165.65625 C 176.316406 180.386719 171.636719 195.246094 166.523438 209.957031 C 164.824219 214.851562 162.230469 219.382812 156.367188 220.5 C 155.292969 220.109375 154.214844 219.714844 153.140625 219.320312 C 149.402344 214.519531 150.414062 209.273438 152.300781 204.320312 C 158.164062 188.96875 164.40625 173.761719 170.347656 158.4375 C 180.105469 133.25 189.753906 108.015625 199.378906 82.773438 C 199.78125 81.71875 199.988281 79.894531 199.402344 79.269531 C 194.671875 74.261719 194.878906 68.140625 195.078125 61.976562 C 196.847656 57.140625 198.613281 52.304688 200.378906 47.46875 Z M 200.378906 47.46875 " fill-opacity="1" fill-rule="evenodd"/></g></g></g><g clip-path="url(#21d23a7c02)"><g clip-path="url(#8aaf0e72aa)"><g clip-path="url(#49c0587cb8)"><path fill="#ff3131" d="M 289.179688 28.71875 C 288.976562 31.507812 289.410156 34.523438 288.484375 37.042969 C 276.695312 69.089844 264.347656 100.933594 252.882812 133.09375 C 241.726562 164.382812 231.421875 195.980469 220.746094 227.4375 C 218.855469 232.996094 216.640625 238.277344 210.277344 240.148438 C 209.042969 239.695312 207.8125 239.246094 206.574219 238.796875 C 202.117188 233.839844 203.761719 228.34375 205.738281 223.238281 C 212.574219 205.613281 219.722656 188.109375 226.757812 170.5625 C 231.789062 158.011719 236.773438 145.4375 241.921875 132.941406 C 242.980469 130.390625 243.1875 128.199219 241.429688 126.011719 C 238.007812 121.777344 238.335938 117.492188 240.164062 112.496094 C 248.484375 89.8125 256.753906 67.109375 269.363281 46.355469 C 273.835938 38.992188 278.46875 31.550781 286.953125 27.90625 C 287.695312 28.179688 288.4375 28.449219 289.179688 28.71875 Z M 289.179688 28.71875 " fill-opacity="1" fill-rule="evenodd"/></g></g></g><g clip-path="url(#08e6186117)"><g clip-path="url(#512ceab60f)"><g clip-path="url(#498d93565a)"><path fill="#ff3131" d="M 96.195312 224.597656 C 92.148438 236.433594 90.441406 248.804688 91.140625 261.347656 C 91.839844 273.894531 94.90625 286 100.234375 297.3125 C 105.757812 309.027344 113.5 319.386719 123.234375 328.09375 C 132.96875 336.804688 144.121094 343.347656 156.375 347.539062 C 168.207031 351.585938 180.578125 353.289062 193.125 352.59375 C 205.671875 351.894531 217.777344 348.828125 229.089844 343.496094 C 240.835938 337.972656 251.179688 330.25 259.90625 320.496094 C 268.628906 310.746094 275.160156 299.609375 279.351562 287.359375 C 283.394531 275.523438 285.101562 263.152344 284.402344 250.605469 C 283.707031 238.0625 280.640625 225.953125 275.308594 214.640625 C 272.382812 208.425781 268.824219 202.589844 264.679688 197.195312 C 276.707031 183.238281 287.382812 172.25 295.667969 164.148438 C 309.695312 150.425781 321.34375 140.628906 336.714844 122.144531 C 345.816406 111.210938 352.601562 101.601562 356.976562 95.082031 C 362.449219 88.964844 361.925781 79.589844 355.808594 74.117188 C 350.769531 69.609375 341.832031 69.96875 334.84375 75.28125 C 328.820312 80.453125 319.71875 88.636719 309.464844 99.519531 C 292.855469 117.179688 285.066406 129.359375 272.308594 145.578125 C 265.664062 154.015625 256.511719 165.042969 244.59375 177.636719 C 236.808594 171.96875 228.285156 167.550781 219.136719 164.417969 C 207.300781 160.375 194.929688 158.667969 182.382812 159.363281 C 169.839844 160.0625 157.734375 163.128906 146.417969 168.460938 C 134.707031 173.984375 124.347656 181.722656 115.640625 191.457031 C 106.929688 201.191406 100.402344 212.328125 96.195312 224.597656 Z M 280.707031 241.921875 C 280.574219 241.054688 280.441406 240.226562 280.273438 239.363281 C 280.457031 240.207031 280.589844 241.074219 280.707031 241.921875 Z M 269.972656 210.289062 C 269.648438 209.707031 269.324219 209.125 268.96875 208.546875 C 269.308594 209.109375 269.664062 209.6875 269.972656 210.289062 Z M 346.21875 83.96875 C 348.449219 85.964844 346.886719 91.367188 342.699219 96.046875 C 338.515625 100.726562 333.316406 102.878906 331.085938 100.882812 C 328.855469 98.886719 330.417969 93.480469 334.601562 88.800781 C 338.789062 84.160156 343.988281 81.972656 346.21875 83.96875 Z M 346.21875 83.96875 " fill-opacity="1" fill-rule="nonzero"/></g></g></g><g clip-path="url(#061bd7a32e)"><g clip-path="url(#1baf616a4b)"><g clip-path="url(#44508bc9ba)"><path fill="#ff3131" d="M 279.871094 122.191406 L 305.0625 357.453125 L 69.796875 382.644531 L 44.605469 147.382812 Z M 279.871094 122.191406 " fill-opacity="1" fill-rule="nonzero"/></g></g></g><g clip-path="url(#c5d7741692)"><g clip-path="url(#5aed0ef5fa)"><g clip-path="url(#e36355cd8f)"><g clip-path="url(#1cff3fbe82)"><path stroke-linecap="butt" transform="matrix(0.0798527, 0.745737, -0.745737, 0.0798527, 279.870454, 122.190806)" fill="none" stroke-linejoin="miter" d="M 157.735766 0.0016628 C 70.620702 0.00254327 -0.00241884 70.619052 -0.00153837 157.734116 C -0.000657913 244.849181 70.621584 315.467677 157.736648 315.466797 C 244.845979 315.47054 315.469655 244.848853 315.468774 157.733789 C 315.467894 70.618724 244.85083 0.000782343 157.735766 0.0016628 Z M 157.735766 0.0016628 " stroke="#ff5757" stroke-width="10" stroke-opacity="1" stroke-miterlimit="4"/></g></g></g></g><path stroke-linecap="butt" transform="matrix(2.494437, -0.147474, 0.147474, 2.494437, 42.126995, 151.297944)" fill="none" stroke-linejoin="miter" d="M 10.496989 31.000272 L 0.667312 31.00011 C 1.047085 30.66865 1.334119 30.104639 1.529976 29.30817 C 1.730976 28.504176 1.830726 27.691063 1.830971 26.865803 L 1.83136 2.967332 C 1.830967 2.126375 1.730323 1.312377 1.529336 0.526898 C 1.335052 -0.266015 1.047343 -0.829554 0.667952 -1.166747 L 9.334095 -1.16647 L 16.729409 15.79972 L 24.093482 -1.16613 L 32.759626 -1.165854 C 32.385818 -0.829343 32.098784 -0.265333 31.898522 0.526178 C 31.696977 1.312914 31.597227 2.126027 31.596059 2.966892 L 31.597138 26.867016 C 31.596985 27.690715 31.697629 28.504713 31.897602 29.307358 C 32.097851 30.105322 32.38556 30.66886 32.760639 30.999534 L 22.930962 30.999372 C 23.310642 30.669472 23.598046 30.09922 23.792988 29.291735 C 23.994633 28.476816 24.09466 27.659022 24.094905 26.833762 L 24.094035 12.439179 L 16.730134 30.064318 L 9.333027 12.333822 L 9.333958 26.83333 C 9.333713 27.65859 9.43408 28.477269 9.634967 29.29093 C 9.83457 30.099817 10.121911 30.669598 10.496989 31.000272 Z M 10.496989 31.000272 " stroke="#ff5757" stroke-width="8.749991" stroke-opacity="1" stroke-miterlimit="4"/><path stroke-linecap="butt" transform="matrix(2.498371, 0.0458668, -0.0458668, 2.498371, 129.421885, 146.795352)" fill="none" stroke-linejoin="miter" d="M 0.334211 10.965683 C 1.374606 9.723912 2.628417 8.779981 4.092518 8.133949 C 5.5629 7.489364 7.24244 7.166152 9.129602 7.165904 C 10.730651 7.166218 12.257395 7.377407 13.711426 7.801006 C 15.170146 8.224519 16.467006 8.858952 17.600442 9.704333 C 18.733792 10.545025 19.633125 11.583889 20.293752 12.821012 C 20.962109 14.053303 21.29494 15.49032 21.295401 17.133569 L 21.294852 23.831693 C 21.29536 24.455527 21.34901 25.078386 21.457422 25.703367 C 21.571943 26.320418 21.809695 26.836705 22.173747 27.249044 C 22.542488 27.661298 23.127909 27.867879 23.931545 27.867197 L 23.931404 28.029806 C 23.285605 28.366873 22.607557 28.735804 21.89726 29.136596 C 21.186877 29.5327 20.50272 29.90956 19.846353 30.267148 C 19.1899 30.620047 18.612098 30.913651 18.112918 31.146399 C 17.613738 31.379146 17.264102 31.496575 17.063982 31.497122 C 16.510482 31.496338 16.038699 31.262654 15.647072 30.796098 C 15.257008 30.329513 14.961754 29.747051 14.761282 29.047148 C 14.5655 28.347159 14.46853 27.664118 14.467219 26.996519 L 14.468043 23.464516 C 14.044078 24.132104 13.569767 24.867848 13.04352 25.670213 C 12.523439 26.467774 12.023332 27.246207 11.546326 28.005453 C 11.069234 28.76001 10.664928 29.391277 10.334998 29.900787 C 10.177296 30.167916 9.764383 30.500709 9.097878 30.902261 C 8.429725 31.299153 7.640645 31.496571 6.729105 31.496107 C 5.351651 31.496379 4.22866 31.219927 3.360132 30.666752 C 2.497857 30.113461 1.87142 29.376036 1.480791 28.452914 C 1.096444 27.53124 0.90245 26.50288 0.903529 25.369309 C 0.903804 24.191974 1.174549 23.098795 1.717327 22.089742 C 2.260019 21.076 2.997284 20.185331 3.930741 19.420832 C 4.864083 18.650081 5.917835 18.05067 7.095122 17.622542 C 8.278546 17.188047 9.512877 16.97151 10.798087 16.971368 C 12.11143 16.970709 13.277411 17.204157 14.29759 17.671682 C 14.009255 16.358929 13.414992 15.330099 12.514831 14.586755 C 11.614669 13.843411 10.507149 13.472864 9.19534 13.471931 C 7.996123 13.472058 6.924515 13.694988 5.980487 14.13916 C 5.036372 14.578643 4.253349 15.276276 3.629825 16.230524 C 3.097881 15.189606 2.576077 14.275146 2.067566 13.488651 C 1.557377 12.695932 0.97909 11.855994 0.334211 10.965683 Z M 7.998483 22.798402 C 7.998947 23.334681 8.175456 23.836457 8.528008 24.30373 C 8.885221 24.769355 9.510234 25.003353 10.399863 25.002656 C 11.175365 25.00249 11.922946 24.758928 12.645703 24.27035 C 13.3715 23.777025 13.979956 23.109177 14.467974 22.268425 L 14.468188 19.2993 C 14.468129 19.12575 14.463208 18.942909 14.451921 18.753931 C 14.440606 18.563389 14.421791 18.390184 14.395448 18.232752 C 14.199571 18.123775 13.985454 18.043276 13.751478 17.988158 C 13.518979 17.928322 13.266706 17.898556 12.994659 17.89886 C 12.062801 17.898769 11.218745 18.167554 10.464054 18.705188 C 9.710812 19.236541 9.111275 19.879209 8.665443 20.633193 C 8.221173 21.387147 7.998333 22.108893 7.998483 22.798402 Z M 7.998483 22.798402 " stroke="#ff5757" stroke-width="8.749991" stroke-opacity="1" stroke-miterlimit="4"/><path stroke-linecap="butt" transform="matrix(2.491309, 0.193236, -0.193236, 2.491309, 189.665618, 148.093365)" fill="none" stroke-linejoin="miter" d="M 0.668007 14.603974 C 0.666718 13.334034 0.943456 12.232252 1.496783 11.300305 C 2.056223 10.366317 2.807122 9.596225 3.750917 8.988349 C 4.695908 8.375676 5.739314 7.920005 6.884253 7.621094 C 8.028828 7.317506 9.200837 7.165451 10.398841 7.166605 C 11.441458 7.165701 12.522862 7.260569 13.646171 7.450968 C 14.76948 7.641367 15.835645 7.90362 16.843348 8.240965 C 17.85836 8.571472 18.710836 8.969463 19.399338 9.43662 C 19.197666 9.990069 18.970771 10.663072 18.715417 11.45431 C 18.461259 12.240751 18.221624 13.052721 17.999388 13.886861 C 17.776911 14.717883 17.587366 15.488337 17.429196 16.198344 C 17.141848 15.889794 16.686994 15.564446 16.063076 15.22242 C 15.44503 14.875234 14.73324 14.552568 13.930824 14.254178 C 13.134159 13.94907 12.312112 13.700809 11.46588 13.504599 C 10.619284 13.303713 9.829104 13.203503 9.096898 13.20385 C 7.96328 13.203973 7.396637 13.559946 7.39685 14.270211 C 7.39613 14.645008 7.684082 14.96135 8.259391 15.222477 C 8.84045 15.476886 9.586127 15.731071 10.496542 15.986589 C 11.408515 16.241986 12.374594 16.548065 13.393341 16.906505 C 14.419518 17.259665 15.38773 17.714533 16.298219 18.274228 C 17.209662 18.826009 17.952749 19.531964 18.528797 20.388855 C 19.109158 21.240708 19.398424 22.301725 19.399592 23.570106 C 19.398826 24.81355 19.113825 25.930086 18.544831 26.922829 C 17.98015 27.910534 17.221618 28.743937 16.265997 29.42172 C 15.311573 30.094706 14.236671 30.609266 13.044531 30.966717 C 11.855266 31.320809 10.641189 31.496511 9.397745 31.495745 C 7.640066 31.495666 6.08416 31.287079 4.728468 30.870105 C 3.376967 30.446534 2.02402 29.822377 0.666509 28.997876 C 1.020287 27.999874 1.328464 26.939556 1.594157 25.816678 C 1.866086 24.693317 2.112982 23.611096 2.334845 22.570016 C 2.643854 22.814168 3.186713 23.142097 3.963423 23.553806 C 4.744568 23.962034 5.666683 24.327969 6.72989 24.65317 C 7.79741 24.973332 8.910509 25.133163 10.066068 25.132906 C 10.396861 25.132336 10.762172 25.111841 11.164876 25.068062 C 11.566021 25.024404 11.909459 24.924071 12.198309 24.766823 C 12.4856 24.609696 12.629679 24.364896 12.629109 24.034103 C 12.629199 23.610749 12.337995 23.272708 11.758374 23.016619 C 11.183549 22.761726 10.440277 22.518331 9.528437 22.284875 C 8.622953 22.052493 7.662288 21.775785 6.648001 21.45463 C 5.639706 21.129875 4.6793 20.694784 3.767024 20.152475 C 2.855943 19.60537 2.110089 18.88395 1.52946 17.988216 C 0.954703 17.087322 0.666594 15.960361 0.668007 14.603974 Z M 0.668007 14.603974 " stroke="#ff5757" stroke-width="8.749991" stroke-opacity="1" stroke-miterlimit="4"/><g fill="#ffffff" fill-opacity="1"><g transform="translate(46.698698, 228.625482)"><g><path d="M 26.1875 -1.546875 L 1.671875 -0.09375 C 2.554688 -0.988281 3.1875 -2.445312 3.5625 -4.46875 C 3.945312 -6.488281 4.078125 -8.523438 3.953125 -10.578125 L 0.421875 -70.1875 C 0.304688 -72.289062 -0.0546875 -74.3125 -0.671875 -76.25 C -1.285156 -78.195312 -2.082031 -79.550781 -3.0625 -80.3125 L 18.53125 -81.59375 L 39.5 -40.375 L 55.375 -83.765625 L 76.984375 -85.046875 C 76.085938 -84.171875 75.445312 -82.734375 75.0625 -80.734375 C 74.6875 -78.734375 74.554688 -76.679688 74.671875 -74.578125 L 78.203125 -14.96875 C 78.328125 -12.914062 78.695312 -10.90625 79.3125 -8.9375 C 79.925781 -6.976562 80.726562 -5.609375 81.71875 -4.828125 L 57.203125 -3.375 C 58.085938 -4.269531 58.71875 -5.738281 59.09375 -7.78125 C 59.476562 -9.832031 59.613281 -11.882812 59.5 -13.9375 L 57.375 -49.859375 L 41.59375 -4.796875 L 20.515625 -47.9375 L 22.65625 -11.765625 C 22.769531 -9.710938 23.132812 -7.691406 23.75 -5.703125 C 24.375 -3.710938 25.1875 -2.328125 26.1875 -1.546875 Z M 26.1875 -1.546875 "/></g></g></g><g fill="#ffffff" fill-opacity="1"><g transform="translate(128.000013, 224.244866)"><g><path d="M 1.75 -50.015625 C 4.414062 -53.078125 7.59375 -55.378906 11.28125 -56.921875 C 14.976562 -58.472656 19.1875 -59.203125 23.90625 -59.109375 C 27.90625 -59.035156 31.710938 -58.4375 35.328125 -57.3125 C 38.941406 -56.1875 42.144531 -54.539062 44.9375 -52.375 C 47.726562 -50.21875 49.925781 -47.585938 51.53125 -44.484375 C 53.144531 -41.390625 53.914062 -37.785156 53.84375 -33.671875 L 53.53125 -16.9375 C 53.5 -15.382812 53.609375 -13.828125 53.859375 -12.265625 C 54.109375 -10.703125 54.679688 -9.394531 55.578125 -8.34375 C 56.472656 -7.300781 57.921875 -6.765625 59.921875 -6.734375 L 59.921875 -6.3125 C 58.285156 -5.507812 56.570312 -4.625 54.78125 -3.65625 C 52.988281 -2.695312 51.265625 -1.785156 49.609375 -0.921875 C 47.960938 -0.0664062 46.507812 0.640625 45.25 1.203125 C 43.988281 1.765625 43.113281 2.039062 42.625 2.03125 C 41.238281 2.007812 40.066406 1.40625 39.109375 0.21875 C 38.160156 -0.96875 37.453125 -2.441406 36.984375 -4.203125 C 36.515625 -5.960938 36.296875 -7.675781 36.328125 -9.34375 L 36.484375 -18.171875 C 35.398438 -16.515625 34.1875 -14.695312 32.84375 -12.71875 C 31.5 -10.75 30.210938 -8.828125 28.984375 -6.953125 C 27.753906 -5.085938 26.710938 -3.53125 25.859375 -2.28125 C 25.460938 -1.613281 24.421875 -0.796875 22.734375 0.171875 C 21.054688 1.140625 19.082031 1.601562 16.8125 1.5625 C 13.363281 1.5 10.566406 0.753906 8.421875 -0.671875 C 6.273438 -2.109375 4.738281 -3.984375 3.8125 -6.296875 C 2.894531 -8.617188 2.460938 -11.195312 2.515625 -14.03125 C 2.566406 -16.96875 3.296875 -19.6875 4.703125 -22.1875 C 6.109375 -24.695312 7.992188 -26.882812 10.359375 -28.75 C 12.722656 -30.625 15.382812 -32.078125 18.34375 -33.109375 C 21.3125 -34.140625 24.40625 -34.625 27.625 -34.5625 C 30.894531 -34.507812 33.800781 -33.875 36.34375 -32.65625 C 35.675781 -35.9375 34.234375 -38.523438 32.015625 -40.421875 C 29.804688 -42.328125 27.0625 -43.3125 23.78125 -43.375 C 20.78125 -43.425781 18.09375 -42.921875 15.71875 -41.859375 C 13.34375 -40.796875 11.351562 -39.082031 9.75 -36.71875 C 8.46875 -39.363281 7.207031 -41.675781 5.96875 -43.65625 C 4.726562 -45.644531 3.320312 -47.765625 1.75 -50.015625 Z M 20.359375 -20.125 C 20.335938 -18.789062 20.757812 -17.53125 21.625 -16.34375 C 22.5 -15.15625 24.046875 -14.539062 26.265625 -14.5 C 28.210938 -14.46875 30.097656 -15.046875 31.921875 -16.234375 C 33.742188 -17.429688 35.285156 -19.070312 36.546875 -21.15625 L 36.671875 -28.578125 C 36.679688 -29.015625 36.675781 -29.46875 36.65625 -29.9375 C 36.644531 -30.414062 36.613281 -30.847656 36.5625 -31.234375 C 36.070312 -31.523438 35.535156 -31.742188 34.953125 -31.890625 C 34.367188 -32.046875 33.742188 -32.128906 33.078125 -32.140625 C 30.742188 -32.179688 28.617188 -31.550781 26.703125 -30.25 C 24.796875 -28.957031 23.269531 -27.375 22.125 -25.5 C 20.976562 -23.632812 20.390625 -21.84375 20.359375 -20.125 Z M 20.359375 -20.125 "/></g></g></g><g fill="#ffffff" fill-opacity="1"><g transform="translate(183.675292, 225.32396)"><g><path d="M 4.84375 -40.71875 C 5.082031 -43.875 5.984375 -46.5625 7.546875 -48.78125 C 9.109375 -51 11.125 -52.773438 13.59375 -54.109375 C 16.070312 -55.453125 18.765625 -56.390625 21.671875 -56.921875 C 24.578125 -57.453125 27.523438 -57.597656 30.515625 -57.359375 C 33.109375 -57.160156 35.785156 -56.710938 38.546875 -56.015625 C 41.316406 -55.328125 43.925781 -54.46875 46.375 -53.4375 C 48.820312 -52.414062 50.863281 -51.265625 52.5 -49.984375 C 51.882812 -48.628906 51.179688 -46.992188 50.390625 -45.078125 C 49.609375 -43.160156 48.859375 -41.1875 48.140625 -39.15625 C 47.429688 -37.125 46.816406 -35.238281 46.296875 -33.5 C 45.628906 -34.332031 44.554688 -35.234375 43.078125 -36.203125 C 41.597656 -37.179688 39.890625 -38.125 37.953125 -39.03125 C 36.015625 -39.9375 34.007812 -40.71875 31.9375 -41.375 C 29.875 -42.03125 27.929688 -42.425781 26.109375 -42.5625 C 23.273438 -42.789062 21.789062 -42.023438 21.65625 -40.265625 C 21.582031 -39.316406 22.238281 -38.46875 23.625 -37.71875 C 25.019531 -36.96875 26.828125 -36.1875 29.046875 -35.375 C 31.265625 -34.5625 33.613281 -33.609375 36.09375 -32.515625 C 38.582031 -31.429688 40.90625 -30.113281 43.0625 -28.5625 C 45.226562 -27.007812 46.945312 -25.109375 48.21875 -22.859375 C 49.488281 -20.617188 50.003906 -17.921875 49.765625 -14.765625 C 49.523438 -11.660156 48.597656 -8.929688 46.984375 -6.578125 C 45.378906 -4.234375 43.320312 -2.3125 40.8125 -0.8125 C 38.3125 0.6875 35.546875 1.765625 32.515625 2.421875 C 29.492188 3.085938 26.425781 3.300781 23.3125 3.0625 C 18.945312 2.726562 15.117188 1.898438 11.828125 0.578125 C 8.535156 -0.742188 5.28125 -2.554688 2.0625 -4.859375 C 3.125 -7.273438 4.097656 -9.851562 4.984375 -12.59375 C 5.867188 -15.34375 6.6875 -17.992188 7.4375 -20.546875 C 8.175781 -19.878906 9.472656 -18.960938 11.328125 -17.796875 C 13.191406 -16.628906 15.421875 -15.535156 18.015625 -14.515625 C 20.609375 -13.503906 23.34375 -12.882812 26.21875 -12.65625 C 27.050781 -12.59375 27.960938 -12.578125 28.953125 -12.609375 C 29.953125 -12.648438 30.828125 -12.835938 31.578125 -13.171875 C 32.335938 -13.503906 32.75 -14.085938 32.8125 -14.921875 C 32.894531 -15.960938 32.238281 -16.859375 30.84375 -17.609375 C 29.457031 -18.359375 27.648438 -19.113281 25.421875 -19.875 C 23.203125 -20.632812 20.863281 -21.507812 18.40625 -22.5 C 15.957031 -23.5 13.648438 -24.765625 11.484375 -26.296875 C 9.316406 -27.828125 7.601562 -29.769531 6.34375 -32.125 C 5.082031 -34.476562 4.582031 -37.34375 4.84375 -40.71875 Z M 4.84375 -40.71875 "/></g></g></g><path stroke-linecap="butt" transform="matrix(2.227993, -0.181537, 0.181537, 2.227993, 102.087499, 257.685861)" fill="none" stroke-linejoin="miter" d="M 3.499419 30.999464 C 2.966974 29.421979 2.528593 27.938067 2.180652 26.549188 C 1.839677 25.160876 1.584252 23.73395 1.416118 22.268552 C 1.247841 20.804895 1.163567 19.171004 1.163009 17.370361 C 1.164296 15.547076 1.397332 13.719882 1.864142 11.885437 C 2.329069 10.052591 3.023913 8.324389 3.94679 6.70243 C 4.867925 5.080329 6.001999 3.642138 7.347128 2.389456 C 8.692683 1.131549 10.253073 0.141864 12.026557 -0.579743 C 13.805408 -1.302666 15.775614 -1.662852 17.933833 -1.662327 C 18.975355 -1.663373 19.995034 -1.546978 20.994613 -1.312999 C 21.997676 -1.078736 22.887012 -0.739777 23.662622 -0.296124 C 24.443316 0.149698 24.990067 0.66938 25.299109 1.266123 L 25.298725 26.833872 C 25.29821 27.657862 25.399707 28.477891 25.599875 29.291934 C 25.80061 30.09901 26.087255 30.669383 26.461836 30.999711 L 16.633033 31.000101 C 17.012348 30.669836 17.300385 30.10421 17.494976 29.308306 C 17.695502 28.50412 17.796893 27.690102 17.795666 26.865971 L 17.795903 21.397574 L 8.870033 21.397898 C 9.113693 23.291986 9.55659 25.021721 10.196698 26.590446 C 10.840857 28.152489 11.687143 29.622298 12.735556 30.999875 Z M 8.901915 15.067723 L 17.796292 15.066586 L 17.828349 5.205362 C 16.364383 5.205299 15.10733 5.506125 14.060675 6.108121 C 13.019671 6.705318 12.143444 7.496527 11.433595 8.483631 C 10.721862 9.472335 10.166999 10.536938 9.765094 11.682381 C 9.363332 12.826082 9.075025 13.954482 8.901915 15.067723 Z M 8.901915 15.067723 " stroke="#ff5757" stroke-width="8.749991" stroke-opacity="1" stroke-miterlimit="4"/><path stroke-linecap="butt" transform="matrix(2.235251, -0.02374, 0.02374, 2.235251, 164.970769, 252.759418)" fill="none" stroke-linejoin="miter" d="M 1.936296 5.839244 C 1.937203 5.589351 1.911524 5.209857 1.862756 4.700797 C 1.819249 4.190045 1.697314 3.659237 1.496989 3.104879 C 1.296701 2.547025 0.973225 2.069999 0.528308 1.673819 C 0.0886889 1.272452 -0.531315 1.071888 -1.335197 1.072088 L -1.335126 0.900827 C -0.509811 0.857165 0.374299 0.707527 1.318934 0.453677 C 2.26184 0.198061 3.194948 -0.122319 4.118258 -0.507463 C 5.039877 -0.897867 5.905692 -1.29935 6.713954 -1.711929 C 7.527459 -2.124453 8.211194 -2.494665 8.76345 -2.82608 L 8.763211 17.435205 L 15.46922 7.671122 L 23.361231 7.671058 L 16.600015 17.532418 L 24.329777 30.999126 L 16.42901 31.000845 L 8.764553 17.637937 L 8.763005 26.833616 C 8.762982 27.658467 8.864381 28.477405 9.065454 29.290412 C 9.264818 30.099905 9.555857 30.669208 9.935061 31.00003 L 0.765574 31.000507 C 1.144821 30.669002 1.435674 30.104132 1.636366 29.307626 C 1.837132 28.50413 1.936643 27.690821 1.936666 26.865969 Z M 1.936296 5.839244 " stroke="#ff5757" stroke-width="8.749991" stroke-opacity="1" stroke-miterlimit="4"/><path stroke-linecap="butt" transform="matrix(2.233779, 0.0845038, -0.0845038, 2.233779, 222.264804, 252.583459)" fill="none" stroke-linejoin="miter" d="M -1.334231 10.900631 C -0.510478 10.857227 0.373987 10.708353 1.31742 10.454073 C 2.262532 10.197981 3.194656 9.875929 4.11722 9.486039 C 5.039717 9.094402 5.904259 8.696214 6.712525 8.289663 C 7.527579 7.877609 8.211108 7.502008 8.763246 7.166351 L 8.764073 26.834153 C 8.763755 27.657812 8.864718 28.477639 9.065149 29.291954 C 9.265316 30.099284 9.556166 30.668856 9.935952 31.000735 L 0.765632 30.999653 C 1.144829 30.66879 1.434781 30.105226 1.635423 29.307215 C 1.835867 28.503965 1.936248 27.690511 1.936566 26.866853 L 1.937077 15.832422 C 1.93656 15.587621 1.911814 15.210834 1.862839 14.702061 C 1.820783 14.191277 1.697475 13.659086 1.496476 13.1071 C 1.296958 12.548063 0.974619 12.070616 0.529459 11.674759 C 0.08934 11.273465 -0.532105 11.071389 -1.334742 11.072025 Z M 5.467804 5.572027 C 4.644146 5.571709 3.898588 5.370832 3.231129 4.969395 C 2.563671 4.567957 2.029144 4.028589 1.627481 3.349542 C 1.231123 2.672044 1.033598 1.934563 1.033161 1.137164 C 1.033413 0.311759 1.230666 -0.43716 1.626667 -1.109658 C 2.029454 -1.78766 2.563386 -2.327228 3.230208 -2.728428 C 3.897031 -3.129628 4.643112 -3.330976 5.468516 -3.330724 C 6.286936 -3.330208 7.035986 -3.129462 7.713922 -2.728421 C 8.391858 -2.32738 8.931624 -1.78821 9.333286 -1.109164 C 9.734685 -0.437102 9.936164 0.312471 9.935846 1.136129 C 9.936284 1.933528 9.735142 2.672101 9.334101 3.350037 C 8.931314 4.028039 8.392143 4.567805 7.714843 4.969401 C 7.035797 5.371064 6.287904 5.570731 5.467804 5.572027 Z M 5.467804 5.572027 " stroke="#ff5757" stroke-width="8.749991" stroke-opacity="1" stroke-miterlimit="4"/><path stroke-linecap="butt" transform="matrix(2.227262, 0.190306, -0.190306, 2.227262, 248.083318, 253.256907)" fill="none" stroke-linejoin="miter" d="M -1.334493 11.072394 L -1.335143 10.900574 C -0.509211 10.858064 0.374255 10.708916 1.318737 10.452832 C 2.261627 10.198638 3.195084 9.875097 4.117665 9.485839 C 5.040096 9.09484 5.905771 8.696413 6.712798 8.288968 C 7.526492 7.877444 8.210092 7.503344 8.763598 7.166668 L 8.764279 14.83087 L 12.164995 8.037077 C 12.61058 7.792052 13.082369 7.58688 13.581807 7.41793 C 14.079652 7.25087 14.642394 7.165956 15.264956 7.165377 C 17.374851 7.165744 19.04125 7.784524 20.262413 9.021867 C 21.488353 10.25354 22.100763 12.125171 22.101382 14.63661 L 22.100101 26.834644 C 22.100377 27.658923 22.198305 28.476612 22.394182 29.291194 C 22.594837 30.100105 22.883803 30.669965 23.264564 31.000475 L 14.102433 30.999361 C 14.47586 30.669302 14.764335 30.104472 14.964525 29.30691 C 15.164269 28.504125 15.264873 27.690519 15.264596 26.86624 L 15.26539 16.304576 C 15.265179 15.234754 14.986279 14.413236 14.426799 13.838429 C 13.873837 13.257803 13.187828 12.967405 12.368773 12.967235 C 11.321735 12.967253 10.519055 13.30242 9.960436 13.969255 C 9.40704 14.635643 9.007442 15.35729 8.763382 16.134046 L 8.763895 26.834151 C 8.764171 27.65843 8.863989 28.477712 9.06509 29.291847 C 9.265595 30.099017 9.556303 30.668728 9.935323 30.999387 L 0.764635 31.000758 C 1.144878 30.668363 1.435243 30.105125 1.635433 29.307563 C 1.836917 28.50463 1.937521 27.691023 1.937245 26.866744 L 1.936175 15.831704 C 1.93639 15.587902 1.912962 15.211076 1.864149 14.701373 C 1.82056 14.191223 1.697981 13.659762 1.498153 13.10684 C 1.295989 12.547102 0.974564 12.069461 0.528654 11.674364 C 0.0892621 11.273449 -0.531256 11.072162 -1.334493 11.072394 Z M -1.334493 11.072394 " stroke="#ff5757" stroke-width="8.749991" stroke-opacity="1" stroke-miterlimit="4"/><g fill="#ffffff" fill-opacity="1"><g transform="translate(107.715133, 326.753654)"><g><path d="M 7.796875 -0.640625 C 6.316406 -4.054688 5.066406 -7.28125 4.046875 -10.3125 C 3.023438 -13.34375 2.195312 -16.476562 1.5625 -19.71875 C 0.925781 -22.957031 0.445312 -26.582031 0.125 -30.59375 C -0.207031 -34.644531 -0.0195312 -38.753906 0.6875 -42.921875 C 1.394531 -47.097656 2.625 -51.070312 4.375 -54.84375 C 6.132812 -58.625 8.398438 -62.035156 11.171875 -65.078125 C 13.953125 -68.128906 17.253906 -70.617188 21.078125 -72.546875 C 24.910156 -74.484375 29.226562 -75.644531 34.03125 -76.03125 C 36.351562 -76.21875 38.644531 -76.140625 40.90625 -75.796875 C 43.175781 -75.460938 45.21875 -74.867188 47.03125 -74.015625 C 48.84375 -73.160156 50.15625 -72.097656 50.96875 -70.828125 L 55.609375 -13.875 C 55.753906 -12.050781 56.125 -10.253906 56.71875 -8.484375 C 57.3125 -6.710938 58.054688 -5.484375 58.953125 -4.796875 L 37.046875 -3.015625 C 37.828125 -3.835938 38.367188 -5.15625 38.671875 -6.96875 C 38.972656 -8.789062 39.050781 -10.613281 38.90625 -12.4375 L 37.921875 -24.609375 L 18.015625 -22.984375 C 18.898438 -18.828125 20.203125 -15.0625 21.921875 -11.6875 C 23.640625 -8.320312 25.785156 -5.195312 28.359375 -2.3125 Z M 16.9375 -37.09375 L 36.765625 -38.71875 L 35.046875 -60.703125 C 31.773438 -60.441406 29.03125 -59.546875 26.8125 -58.015625 C 24.59375 -56.492188 22.78125 -54.566406 21.375 -52.234375 C 19.976562 -49.898438 18.9375 -47.421875 18.25 -44.796875 C 17.570312 -42.179688 17.132812 -39.613281 16.9375 -37.09375 Z M 16.9375 -37.09375 "/></g></g></g><g fill="#ffffff" fill-opacity="1"><g transform="translate(165.706707, 322.052197)"><g><path d="M 3.734375 -56.296875 C 3.722656 -56.835938 3.660156 -57.679688 3.546875 -58.828125 C 3.429688 -59.972656 3.144531 -61.160156 2.6875 -62.390625 C 2.226562 -63.628906 1.5 -64.691406 0.5 -65.578125 C -0.5 -66.460938 -1.894531 -66.894531 -3.6875 -66.875 L -3.703125 -67.25 C -1.859375 -67.363281 0.113281 -67.71875 2.21875 -68.3125 C 4.320312 -68.90625 6.398438 -69.644531 8.453125 -70.53125 C 10.503906 -71.425781 12.429688 -72.34375 14.234375 -73.28125 C 16.035156 -74.21875 17.554688 -75.066406 18.796875 -75.828125 L 19.265625 -30.53125 L 34.015625 -52.515625 L 51.671875 -52.703125 L 36.78125 -30.484375 L 54.390625 -0.578125 L 36.734375 -0.390625 L 19.28125 -30.078125 L 19.5 -9.515625 C 19.519531 -7.679688 19.757812 -5.859375 20.21875 -4.046875 C 20.6875 -2.242188 21.347656 -0.972656 22.203125 -0.234375 L 1.71875 -0.015625 C 2.550781 -0.773438 3.179688 -2.050781 3.609375 -3.84375 C 4.046875 -5.632812 4.253906 -7.445312 4.234375 -9.28125 Z M 3.734375 -56.296875 "/></g></g></g><g fill="#ffffff" fill-opacity="1"><g transform="translate(219.645186, 321.830608)"><g><path d="M -1.28125 -45 C 0.5625 -45.039062 2.546875 -45.300781 4.671875 -45.78125 C 6.804688 -46.269531 8.914062 -46.910156 11 -47.703125 C 13.09375 -48.492188 15.0625 -49.316406 16.90625 -50.171875 C 18.757812 -51.023438 20.320312 -51.800781 21.59375 -52.5 L 19.9375 -8.578125 C 19.863281 -6.742188 20.015625 -4.910156 20.390625 -3.078125 C 20.773438 -1.242188 21.375 0.0625 22.1875 0.84375 L 1.71875 0.0625 C 2.59375 -0.65625 3.285156 -1.898438 3.796875 -3.671875 C 4.316406 -5.441406 4.609375 -7.242188 4.671875 -9.078125 L 5.609375 -33.703125 C 5.628906 -34.253906 5.609375 -35.097656 5.546875 -36.234375 C 5.484375 -37.378906 5.253906 -38.582031 4.859375 -39.84375 C 4.460938 -41.101562 3.785156 -42.195312 2.828125 -43.125 C 1.867188 -44.0625 0.492188 -44.5625 -1.296875 -44.625 Z M 14.359375 -56.328125 C 12.535156 -56.398438 10.890625 -56.910156 9.421875 -57.859375 C 7.960938 -58.816406 6.816406 -60.066406 5.984375 -61.609375 C 5.148438 -63.148438 4.765625 -64.816406 4.828125 -66.609375 C 4.898438 -68.453125 5.410156 -70.113281 6.359375 -71.59375 C 7.304688 -73.070312 8.546875 -74.226562 10.078125 -75.0625 C 11.609375 -75.894531 13.285156 -76.273438 15.109375 -76.203125 C 16.941406 -76.140625 18.597656 -75.632812 20.078125 -74.6875 C 21.554688 -73.738281 22.710938 -72.488281 23.546875 -70.9375 C 24.390625 -69.394531 24.773438 -67.703125 24.703125 -65.859375 C 24.640625 -64.066406 24.128906 -62.429688 23.171875 -60.953125 C 22.222656 -59.484375 20.972656 -58.328125 19.421875 -57.484375 C 17.878906 -56.648438 16.191406 -56.265625 14.359375 -56.328125 Z M 14.359375 -56.328125 "/></g></g></g><g fill="#ffffff" fill-opacity="1"><g transform="translate(242.18382, 322.302016)"><g><path d="M 0.828125 -44.640625 L 0.859375 -45.015625 C 2.703125 -44.960938 4.695312 -45.128906 6.84375 -45.515625 C 9 -45.898438 11.140625 -46.4375 13.265625 -47.125 C 15.390625 -47.820312 17.394531 -48.550781 19.28125 -49.3125 C 21.164062 -50.070312 22.753906 -50.769531 24.046875 -51.40625 L 22.59375 -34.328125 L 31.46875 -48.828125 C 32.5 -49.296875 33.585938 -49.664062 34.734375 -49.9375 C 35.878906 -50.207031 37.144531 -50.285156 38.53125 -50.171875 C 43.226562 -49.773438 46.820312 -48.085938 49.3125 -45.109375 C 51.800781 -42.128906 52.804688 -37.835938 52.328125 -32.234375 L 50.015625 -5.078125 C 49.859375 -3.242188 49.921875 -1.410156 50.203125 0.421875 C 50.492188 2.265625 51.03125 3.597656 51.8125 4.421875 L 31.40625 2.6875 C 32.300781 2.007812 33.046875 0.800781 33.640625 -0.9375 C 34.242188 -2.675781 34.625 -4.460938 34.78125 -6.296875 L 36.796875 -29.828125 C 37.003906 -32.210938 36.539062 -34.097656 35.40625 -35.484375 C 34.28125 -36.867188 32.804688 -37.640625 30.984375 -37.796875 C 28.648438 -37.992188 26.796875 -37.40625 25.421875 -36.03125 C 24.054688 -34.65625 23.03125 -33.125 22.34375 -31.4375 L 20.3125 -7.609375 C 20.15625 -5.773438 20.222656 -3.9375 20.515625 -2.09375 C 20.804688 -0.257812 21.34375 1.066406 22.125 1.890625 L 1.71875 0.140625 C 2.613281 -0.535156 3.359375 -1.738281 3.953125 -3.46875 C 4.554688 -5.207031 4.9375 -6.992188 5.09375 -8.828125 L 7.203125 -33.390625 C 7.242188 -33.941406 7.257812 -34.789062 7.25 -35.9375 C 7.25 -37.082031 7.078125 -38.289062 6.734375 -39.5625 C 6.398438 -40.84375 5.773438 -41.972656 4.859375 -42.953125 C 3.953125 -43.929688 2.609375 -44.492188 0.828125 -44.640625 Z M 0.828125 -44.640625 "/></g></g></g></svg>